<?xml version="1.0" encoding="utf-8"?>
<!-- Generator: Adobe Illustrator 26.0.2, SVG Export Plug-In . SVG Version: 6.00 Build 0)  -->
<svg version="1.1" id="Layer_1" xmlns="http://www.w3.org/2000/svg" xmlns:xlink="http://www.w3.org/1999/xlink" x="0px" y="0px"
	 viewBox="0 0 217.38 158.68" style="enable-background:new 0 0 217.38 158.68;" xml:space="preserve">
<style type="text/css">
	.st0{fill:none;stroke:#000000;stroke-width:4;stroke-miterlimit:10;}
	.st1{stroke:#000000;stroke-width:4;stroke-miterlimit:10;}
	.st2{fill:none;stroke:#000000;stroke-width:2;stroke-miterlimit:10;}
	.st3{fill:none;stroke:#000000;stroke-width:3;stroke-miterlimit:10;}
	.st4{fill:none;stroke:#000000;stroke-miterlimit:10;}
	.st5{fill:#FFFFFF;stroke:#FFFFFF;stroke-width:4;stroke-miterlimit:10;}
	.st6{fill:#ECCACC;}
	.st7{fill:#AA94BF;stroke:#000000;stroke-width:0.75;stroke-miterlimit:10;}
	.st8{fill:#6976A6;stroke:#000000;stroke-width:0.75;stroke-miterlimit:10;}
	.st9{fill:#BFB2C1;stroke:#000000;stroke-width:0.75;stroke-miterlimit:10;}
	.st10{fill:#ECCACC;stroke:#000000;stroke-width:0.75;stroke-miterlimit:10;}
	.st11{fill:#F4DCD0;stroke:#000000;stroke-width:0.75;stroke-miterlimit:10;}
	.st12{fill:#6976A6;}
	.st13{fill:#6976A6;stroke:#000000;stroke-width:2;stroke-miterlimit:10;}
	.st14{fill:#ECCACC;stroke:#000000;stroke-width:2;stroke-miterlimit:10;}
	.st15{fill:#6976A6;stroke:#6976A6;stroke-width:2;stroke-miterlimit:10;}
	.st16{fill:#ECCACC;stroke:#6976A6;stroke-width:2;stroke-miterlimit:10;}
	.st17{fill:#ECCACC;stroke:#ECCACC;stroke-width:2;stroke-miterlimit:10;}
	.st18{fill:#FFFFFF;stroke:#FFFFFF;stroke-width:2;stroke-miterlimit:10;}
	.st19{fill:#FFFFFF;}
</style>
<g>
	<path class="st19" d="M6.54,95.6C31.3,86.77,56.9,79.91,82.33,73.49c25.39-6.19,51.3-11.94,77.04-16.57
		c17.24-3.14,34.57-5.93,52.11-7.74c0,0,0.13,0.59,0.13,0.59C160.84,60.94,56.49,86.37,6.54,95.6L6.54,95.6z"/>
</g>
<g>
	<path class="st19" d="M41.88,117.05c0.2-30.92,36.63-46.95,59.6-25.9c14.83,13.72,14.82,38.08-0.01,51.8
		C78.48,163.97,42.08,147.97,41.88,117.05L41.88,117.05z M42.28,117.05c-0.03,23.55,24.28,39.77,46,30.65
		c27.13-11.48,27.13-49.81,0-61.3C66.55,77.28,42.25,93.5,42.28,117.05L42.28,117.05z"/>
</g>
<g>
	<path class="st19" d="M167.39,32.26c3.3,22.48-21.4,38.36-40.57,25.73c-12.64-8.38-15.38-26.67-5.76-38.39
		C135.69,1.91,163.93,9.81,167.39,32.26L167.39,32.26z M166.99,32.32c-3.28-21.1-30.44-27.84-43.14-10.66
		c-7.8,10.2-5.42,26.07,5.04,33.53C146.07,67.87,170.06,53.45,166.99,32.32L166.99,32.32z"/>
</g>
</svg>
